<?xml version="1.0" encoding="utf-8"?>
<!-- Generator: Adobe Illustrator 19.0.0, SVG Export Plug-In . SVG Version: 6.00 Build 0)  -->
<svg version="1.1" id="Layer_1" xmlns="http://www.w3.org/2000/svg" xmlns:xlink="http://www.w3.org/1999/xlink" x="0px" y="0px"
	 viewBox="0 0 500 500" style="enable-background:new 0 0 500 500;" xml:space="preserve">
<style type="text/css">
	.st0{fill:#F7C5A2;}
	.st1{fill:#E67817;}
</style>
<g id="XMLID_1_">
	<path id="XMLID_13_" d="M298.4,399.2l13.3,33.2l5.5,0c0.9-1.2,0.5-0.7,1.2-2.1c0.2-0.5,0.6-1.6,0.9-2.2c3.9-9.3,7.8-20.4,11.8-29
		l0,33.3l6.4-0.3l0-40.1c-12.8-0.1-8.2-2.4-16,16.6c-1.9,4.7-4.6,13.1-6.9,17c-1.1-4-11.8-31.8-13.3-33.6l-8.9-0.1l-0.1,40.4
		l6.1-0.1L298.4,399.2L298.4,399.2z M254.3,396.8c5.8-0.1,18.7-1.3,21.3,3.1c1.7,2.9,0.7,7-1.3,8.6c-3.3,2.7-15,1.9-20,1.9
		L254.3,396.8L254.3,396.8z M247.9,432.4l6.5,0l0-17.2c25.5-1.1,19.7,0.9,22.5,17.2l8,0.1c-1.1-2.9-0.2-0.2-1.3-2.4
		c-3.2-6.5,1.7-13.6-6.3-17.5c2.6-2.7,5.8-2.9,5.9-9.2c0.1-14.9-21.3-10.9-35.2-11.2L247.9,432.4L247.9,432.4z M163.7,413.5l25,0
		l-0.1,18.9l6.6-0.1l0-40.2l-6.5,0.2l-0.3,16.3l-24.6,0l-0.1-16.5l-6.5,0.1l0,40.2l6.5-0.2L163.7,413.5L163.7,413.5z M356.4,415.7
		c1-3.7,5.5-15.3,7.5-17.4l7.1,17.4L356.4,415.7z M342.4,432.2l6.9,0.2l4.8-12l19.2,0l4.8,11.8l6.9,0.3c-1-3.6-16.4-38.4-17.9-40.2
		l-6.8-0.1L342.4,432.2L342.4,432.2z M214.2,415.7c1-3.4,5.7-15.4,7.6-17.3c2,5.5,5.5,11.6,7,17.3L214.2,415.7z M211.9,420.4
		l19.1,0.1l4.9,11.8l6.9,0.1c-1.8-5.9-6.4-14.9-9-20.9c-1.6-3.5-2.9-6.7-4.5-10.2c-4.8-10.2-1.5-9.4-11.3-9.2l-17.5,40.2l6.6-0.1
		L211.9,420.4L211.9,420.4z M123.1,397c7.2,0.1,21.3-2.5,21.1,6.9c-0.1,4.9-2.7,6.1-7.5,6.5c-4.1,0.3-9.2,0.2-13.6,0.1L123.1,397z
		 M123.1,415.3c9.6,0.3,31.2,2.4,27.4-14.7c-1.4-6.1-6.4-8.1-13-8.5c-6.4-0.3-14.5-0.3-20.9,0l0,40.3l6.5-0.4L123.1,415.3
		L123.1,415.3z"/>
	<path id="XMLID_16_" d="M185.9,280.8c2.9,3.5,12.1-0.6,14.2,10.7c3.4,18.4-3.4,58.7,4.9,70.7c6.2,9,22.3,13,37.7,12.1
		c40-2.4,29.7-33,30.8-69.5c0.2-7.3,1.1-15.2,5.4-19.7c4.3-4.5,16.3-2.8,19.4,0.9c2.6,3.1,1.2,42.1,1.2,49.6
		c0,7.9,0.3,16.3-2.1,23.4c-4.7,14-12.9,5.8-12.8,12.2c2.9,1.5,33,1.3,36.1,0.1c-0.2-4.3-3.6-2.6-7.7-3.9
		c-9.7-3.1-9.7-18.2-9.7-26.9l0-51.5c1.5,1.1,0.1-0.2,1.3,1.1l47.3,74.1c1.9,3.1,4.6,8.8,7.9,10.1c4.8-5.4,4.6-6.9,12.5-11.3
		c2.5-1.4,4-1.4,5-3.6c-2.1-2.1-5.8-2.3-7.5-5.1c-1.6-2.5-0.7-33.6-0.7-37.9c0-8.4-1.1-26.6,6.5-32c3.6-2.6,8.1-0.8,9.1-4.3
		c-1.8-2.7-12.6-1.6-18.3-1.6c-3.9,0-16.7-1.2-18.5,1.6c1.4,5,8.5-0.6,13.7,7.3c6.2,9.3,3.8,47.6,3.9,61.3l-41-62.9
		c-3.3-5.1-1-7.3-7.8-7.3l-57.9,0c-3.2,0-4.5-0.4-6.6,1c1.3,7.6,17.8-6,17.8,28.9v31.4c0,18.3-5,28.8-22.8,30.3
		c-8.1,0.7-16.8-1-21.5-5.1c-4.7-4.2-5.6-12.4-5.6-20.9c0-9.3-1.2-48.7,2.1-55.8c4.2-9,14-2.7,15.2-9.1c-4.3-1.6-19.8-0.7-25.9-0.7
		c-4.5,0-9,0-13.5,0C194.3,278.6,186.5,277.2,185.9,280.8L185.9,280.8z M129.4,378.6c4.8-1.7,3-7.7,11.6-6.6
		c6.2,0.8,10.5,1.7,17.1,1.1c34.1-3,45.7-47,8.4-58c-16.3-4.8-34.9-6.1-35.1-20.1c-0.1-6.2,3-9.8,6.3-12
		c11.7-8.3,30.3-1.3,37.7,10.9c2.8,4.5,5.1,10.2,9,10.4c1-3.8-3.2-12.4-4.9-16.4c-1.3-3.3-4.6-14.2-7-15.9c-5.4,5.2,1.3,7-14.8,4.4
		c-18.7-3-38.3,5.7-40.9,24.3c-4.3,30.3,30.1,28.2,48.5,39.5c4.3,2.6,9.3,6.2,9.1,13.2c-0.4,13.3-15,18-27.5,15
		c-17.3-4.1-27.2-24.1-29.6-25.9c-3.8-2.8-2.1,3.6-1.4,5.2C118.3,352.7,127.7,376.2,129.4,378.6L129.4,378.6z"/>
	<path id="XMLID_19_" d="M204.8,168.2c-2.5-26.2,15.1-45.5,38.6-47.9c25-2.5,45.7,16.8,47.9,38.7c4,39.8-43.1,61.6-71.4,37.5
		C213.1,190.7,206,181.2,204.8,168.2z M239.8,68.3c-13.7,2.1-25.1,7.5-33.5,14.3c-4.2,3.4-8.6,7.7-12,12c-3,3.8-1.2,3.4-6,5.7
		c-12,5.7-23.1,17.8-29.3,31c-5.6,11.7-8.4,26.2-6.5,41c1.7,13.1,7,25.1,13.9,33.9c8.2,10.5,16.7,15.1,18.4,17.3
		c5.6,7.4,8,12.5,16.8,19.5c4.7,3.8,8.5,6.4,14.5,9.4c11.8,6,26.1,8.5,40.9,6.5c34.9-4.8,45.9-29.4,50.6-32.5c2.5-1.6,5.1-3.4,7.3-5
		c7.9-6,16.4-15.6,22-26c5.9-11,8.6-25.9,6.9-40.3c-2.4-19.3-12.1-35.3-25.8-46.3c-6.9-5.5-5.2-5.5-11-13
		C295.5,80.4,270.4,63.6,239.8,68.3L239.8,68.3z"/>
	<path id="XMLID_22_" class="st0" d="M212.4,132.7c1.7-1,0.8-0.5,2.2-1.8c17.7-16.6,41.7-17,63-6.2c8,4,18.3,12.1,24.1,19
		c12.7,15.1,18.4,33.7,15.9,53.9c-1.5,12.5-3.7,14.1-6.1,22.5c7.3-2.8,16.2-13.7,20.5-20.4c11.8-18.3,13-44.9,3.5-64.6
		c-6.3-13.2-8.9-14.2-17.2-22.8c-12.5-12.9-38.3-20.7-61.7-15.8c-15.3,3.1-27.9,12.6-36.8,23.7C217.4,123.2,213.8,128.4,212.4,132.7
		L212.4,132.7z M284.1,192.6c-4.4,2.5-25.4,29.6-64.9,9.5c-11.8-6-23.5-17.5-30.4-28c-12.8-19.6-11.7-50.2-1.6-69.8
		c-6.6,2.2-13.1,9.3-17.2,14c-1.3,1.5-1.1,1.1-2.2,2.7c-0.7,1-1.3,1.9-2,2.9c-12.6,17.7-15.4,45.5-6.7,65.8
		c7.7,18,24.1,33.4,43.5,38.9c11.3,3.2,24.5,4,36.4,1.1c11-2.6,20.9-8.2,27.5-13.7C272.4,211.1,280.9,202.1,284.1,192.6L284.1,192.6
		z"/>
	<path id="XMLID_25_" class="st1" d="M276.1,127.1c37.7,32.5,11.3,91.9-35.6,104.6c-8.3,2.2-18.1,3-27.1,1.8
		c-9.4-1.2-14.7-4.5-22.6-6.3c2.1,6.3,14.5,16.5,20.6,20.1c9,5.2,18,9.2,30.7,9.8c27.8,1.3,45.2-10.3,57-24.1
		C331.3,195.4,311.9,141.4,276.1,127.1L276.1,127.1z M216,196.9c-3.1-2.1-9.3-12.2-11.2-17.2c-3.4-8.9-3.5-15.4-2-25.6
		c4.5-30.4,25.5-54.1,55.4-60.3c8.1-1.7,18.3-1.5,26.6-0.3c12.2,1.9,15,4.7,22.1,6.5c-1.3-3.4-6.9-9.3-9.2-11.4
		c-30.5-27.5-73.4-24-97.7,3c-20.9,23.3-25.9,59.5-4.8,87.2C199.2,184.1,209.2,194.9,216,196.9L216,196.9z"/>
</g>
</svg>
